<?xml version="1.0"?>
<svg xmlns="http://www.w3.org/2000/svg" viewBox="0 0 64 64" width="512" height="512"><g id="Pistons-engine-parts-motor"><path d="M20,15a5,5,0,1,0-5,5A5.006,5.006,0,0,0,20,15Zm-8,0a3,3,0,1,1,3,3A3,3,0,0,1,12,15Z"/><path d="M54,21a5,5,0,1,0-5,5A5.006,5.006,0,0,0,54,21Zm-8,0a3,3,0,1,1,3,3A3,3,0,0,1,46,21Z"/><path d="M61,42H54a1,1,0,0,0-1,1v5H52V30h7a1,1,0,0,0,1-1V11a1,1,0,0,0-.11-.45l-1-2A.988.988,0,0,0,58,8H40a.988.988,0,0,0-.89.55l-1,2A1,1,0,0,0,38,11V29a1,1,0,0,0,1,1h7V48H45V43a1,1,0,0,0-1-1H37a1,1,0,0,0-1,1v4H28V43a1,1,0,0,0-1-1H21V41a1,1,0,0,0-1-1H18V24h7a1,1,0,0,0,1-1V5a1,1,0,0,0-.11-.45l-1-2A.988.988,0,0,0,24,2H6a.988.988,0,0,0-.89.55l-1,2A1,1,0,0,0,4,5V23a1,1,0,0,0,1,1h7V40H10a1,1,0,0,0-1,1v1H3a1,1,0,0,0-1,1V61a1,1,0,0,0,1,1h7a1,1,0,0,0,1-1V52h8v9a1,1,0,0,0,1,1h7a1,1,0,0,0,1-1V57h8v4a1,1,0,0,0,1,1h7a1,1,0,0,0,1-1V60h8v1a1,1,0,0,0,1,1h7a1,1,0,0,0,1-1V43A1,1,0,0,0,61,42ZM9,60H4V44H9ZM6,5.24,6.62,4H23.38L24,5.24V6H6ZM6,22V8H24V22Zm10,2V40H14V24Zm3,26H11V42h8Zm7,10H21V44h5Zm10-5H28V49h8Zm7,5H38V44h5ZM40,11.24,40.62,10H57.38L58,11.24V12H40ZM40,28V14H58V28Zm10,2V48H48V30Zm3,28H45V50h8Zm7,2H55V44h5Z"/></g></svg>
